<svg xmlns="http://www.w3.org/2000/svg" xmlns:xlink="http://www.w3.org/1999/xlink" width="500" zoomAndPan="magnify" viewBox="0 0 375 374.999991" height="500" preserveAspectRatio="xMidYMid meet" version="1.0"><defs><clipPath id="37c0109d23"><path d="M 0 53.578125 L 374 53.578125 L 374 321 L 0 321 Z M 0 53.578125 " clip-rule="nonzero"/></clipPath></defs><g clip-path="url(#37c0109d23)"><path fill="#008ca8" d="M 363.578125 320.070312 C 367.460938 321.53125 370.589844 319.808594 372.207031 317.722656 C 373.09375 316.550781 374.917969 313.421875 372.363281 309.824219 L 192.90625 56.699219 C 191.523438 54.742188 189.308594 53.621094 186.832031 53.621094 C 184.355469 53.621094 182.140625 54.742188 180.757812 56.699219 L 1.304688 309.824219 C 0.339844 311.179688 0 312.484375 0 313.628906 C 0 315.507812 0.914062 316.992188 1.460938 317.722656 C 3.074219 319.808594 6.203125 321.53125 10.085938 320.070312 L 179.457031 256.371094 C 184.199219 254.574219 189.464844 254.574219 194.210938 256.371094 L 363.578125 320.070312 " fill-opacity="1" fill-rule="nonzero"/></g></svg>