<svg xmlns="http://www.w3.org/2000/svg" xmlns:xlink="http://www.w3.org/1999/xlink" width="250" zoomAndPan="magnify" viewBox="0 0 187.5 74.999997" height="100" preserveAspectRatio="xMidYMid meet" version="1.0"><defs><g/><clipPath id="cb5e4b8a65"><path d="M 41.261719 0.101562 L 146 0.101562 L 146 74.898438 L 41.261719 74.898438 Z M 41.261719 0.101562 " clip-rule="nonzero"/></clipPath></defs><g clip-path="url(#cb5e4b8a65)"><path fill="#008ca8" d="M 143.066406 74.738281 C 144.152344 75.148438 145.027344 74.667969 145.480469 74.082031 C 145.726562 73.753906 146.238281 72.878906 145.523438 71.871094 L 95.277344 0.972656 C 94.890625 0.425781 94.269531 0.109375 93.574219 0.109375 C 92.882812 0.109375 92.261719 0.425781 91.875 0.972656 L 41.628906 71.871094 C 41.359375 72.25 41.261719 72.613281 41.261719 72.9375 C 41.261719 73.460938 41.519531 73.878906 41.671875 74.082031 C 42.125 74.667969 43 75.148438 44.085938 74.738281 L 91.511719 56.898438 C 92.839844 56.394531 94.3125 56.394531 95.640625 56.898438 L 143.066406 74.738281 " fill-opacity="1" fill-rule="nonzero"/></g><g fill="#ffffff" fill-opacity="1"><g transform="translate(0.107165, 50.425256)"><g><path d="M 12.707031 0.445312 C 17.96875 0.445312 23.140625 -2.941406 23.140625 -8.515625 C 23.140625 -13.554688 18.503906 -15.515625 13.554688 -17.476562 C 9.765625 -19.039062 5.171875 -20.734375 5.171875 -24.925781 C 5.171875 -28.714844 8.25 -30.808594 11.859375 -30.808594 C 16.941406 -30.808594 20.066406 -28.046875 21.714844 -24.167969 L 22.160156 -24.300781 L 21.980469 -29.472656 C 20.242188 -30.410156 17.34375 -31.523438 13.289062 -31.523438 C 6.734375 -31.523438 2.40625 -28.222656 2.40625 -23.007812 C 2.40625 -18.28125 5.75 -16.410156 11.011719 -14.3125 C 14.757812 -12.796875 20.242188 -10.746094 20.242188 -6.285156 C 20.242188 -2.675781 17.167969 -0.355469 13.597656 -0.355469 C 7.402344 -0.355469 4.011719 -4.324219 2.273438 -9.007812 L 1.785156 -8.917969 L 2.007812 -2.71875 C 4.101562 -1.203125 8.027344 0.445312 12.707031 0.445312 Z M 12.707031 0.445312 "/></g></g></g><g fill="#ffffff" fill-opacity="1"><g transform="translate(24.672415, 50.425256)"><g><path d="M 1.648438 0 L 8.695312 0 L 8.695312 -0.578125 C 7.3125 -0.980469 6.910156 -2.007812 6.910156 -5.664062 L 6.910156 -8.871094 L 11.058594 -12.886719 L 15.117188 -5.351562 C 17.300781 -1.335938 18.769531 0 20.957031 0 L 23.855469 0 L 23.855469 -0.535156 C 21.847656 -0.667969 20.464844 -2.71875 18.726562 -5.839844 L 13.511719 -15.25 L 16.71875 -18.371094 C 19.351562 -20.867188 20.824219 -21.3125 22.160156 -21.714844 L 22.160156 -22.292969 L 16.898438 -22.292969 L 16.898438 -21.980469 C 17.878906 -21.535156 17.566406 -19.976562 14.667969 -17.121094 L 6.910156 -9.675781 L 6.910156 -35.714844 L 6.511719 -36.027344 L 1.648438 -33.886719 L 1.648438 -33.394531 C 2.855469 -32.859375 3.433594 -32.414062 3.433594 -29.292969 L 3.433594 -5.664062 C 3.433594 -2.007812 3.03125 -0.980469 1.648438 -0.578125 Z M 1.648438 0 "/></g></g></g><g fill="#ffffff" fill-opacity="1"><g transform="translate(48.301418, 50.425256)"><g><path d="M 1.425781 0 L 8.472656 0 L 8.472656 -0.578125 C 7.132812 -0.980469 6.6875 -2.007812 6.6875 -5.664062 L 6.6875 -22.339844 L 6.332031 -22.652344 L 1.425781 -20.511719 L 1.425781 -20.019531 C 2.675781 -19.484375 3.210938 -19.039062 3.210938 -15.917969 L 3.210938 -5.664062 C 3.210938 -2.007812 2.808594 -0.980469 1.425781 -0.578125 Z M 2.230469 -27.824219 C 2.230469 -26.484375 3.300781 -25.371094 4.683594 -25.371094 C 6.0625 -25.371094 7.132812 -26.484375 7.132812 -27.824219 C 7.132812 -29.25 6.109375 -30.320312 4.683594 -30.320312 C 3.300781 -30.320312 2.230469 -29.25 2.230469 -27.824219 Z M 2.230469 -27.824219 "/></g></g></g><g fill="#ffffff" fill-opacity="1"><g transform="translate(58.332602, 50.425256)"><g><path d="M 1.695312 0 L 8.738281 0 L 8.738281 -0.578125 C 7.355469 -0.980469 6.957031 -2.007812 6.957031 -5.664062 L 6.957031 -35.714844 L 6.554688 -36.027344 L 1.695312 -33.886719 L 1.695312 -33.394531 C 2.898438 -32.859375 3.476562 -32.414062 3.476562 -29.292969 L 3.476562 -5.664062 C 3.476562 -2.007812 3.03125 -0.980469 1.695312 -0.578125 Z M 1.695312 0 "/></g></g></g><g fill="#ffffff" fill-opacity="1"><g transform="translate(68.89878, 50.425256)"><g><path d="M 1.695312 0 L 8.738281 0 L 8.738281 -0.578125 C 7.355469 -0.980469 6.957031 -2.007812 6.957031 -5.664062 L 6.957031 -35.714844 L 6.554688 -36.027344 L 1.695312 -33.886719 L 1.695312 -33.394531 C 2.898438 -32.859375 3.476562 -32.414062 3.476562 -29.292969 L 3.476562 -5.664062 C 3.476562 -2.007812 3.03125 -0.980469 1.695312 -0.578125 Z M 1.695312 0 "/></g></g></g><g fill="#ffffff" fill-opacity="1"><g transform="translate(79.464959, 50.425256)"><g><path d="M 18.683594 0 L 22.5625 0 L 22.5625 -0.578125 C 21.179688 -0.980469 20.777344 -2.007812 20.777344 -5.664062 L 20.777344 -14.582031 C 20.777344 -19.617188 18.28125 -22.605469 12.886719 -22.605469 C 9.007812 -22.605469 5.75 -20.6875 3.210938 -17.523438 L 3.613281 -17.167969 C 5.839844 -19.886719 8.425781 -21.132812 11.101562 -21.132812 C 14.890625 -21.132812 17.121094 -19.128906 17.34375 -14.804688 L 11.546875 -13.242188 C 6.242188 -11.769531 1.5625 -10.03125 1.5625 -5.394531 C 1.5625 -1.5625 4.503906 0.445312 7.804688 0.445312 C 12.21875 0.445312 15.960938 -3.878906 17.34375 -9.363281 L 17.34375 -1.335938 C 17.34375 -0.492188 17.789062 0 18.683594 0 Z M 4.90625 -6.644531 C 4.859375 -10.300781 8.425781 -11.769531 11.726562 -12.707031 L 17.34375 -14.222656 L 17.34375 -12.886719 C 17.300781 -8.203125 14.222656 -2.183594 9.453125 -2.183594 C 6.910156 -2.183594 4.90625 -3.746094 4.90625 -6.644531 Z M 4.90625 -6.644531 "/></g></g></g><g fill="#ffffff" fill-opacity="1"><g transform="translate(103.093962, 50.425256)"><g><path d="M 2.898438 -17.078125 L 10.03125 0 L 11.90625 0 L 18.460938 -16.988281 C 19.753906 -20.421875 20.464844 -21.3125 21.714844 -21.714844 L 21.714844 -22.292969 L 17.121094 -22.292969 L 17.121094 -21.714844 C 18.683594 -21.402344 18.859375 -19.929688 17.746094 -16.988281 L 12.484375 -3.253906 L 6.644531 -17.078125 C 5.214844 -20.421875 4.859375 -21.3125 6.199219 -21.714844 L 6.199219 -22.292969 L -0.222656 -22.292969 L -0.222656 -21.714844 C 0.714844 -21.3125 1.515625 -20.421875 2.898438 -17.078125 Z M 2.898438 -17.078125 "/></g></g></g><g fill="#ffffff" fill-opacity="1"><g transform="translate(124.582986, 50.425256)"><g><path d="M 18.683594 0 L 22.5625 0 L 22.5625 -0.578125 C 21.179688 -0.980469 20.777344 -2.007812 20.777344 -5.664062 L 20.777344 -14.582031 C 20.777344 -19.617188 18.28125 -22.605469 12.886719 -22.605469 C 9.007812 -22.605469 5.75 -20.6875 3.210938 -17.523438 L 3.613281 -17.167969 C 5.839844 -19.886719 8.425781 -21.132812 11.101562 -21.132812 C 14.890625 -21.132812 17.121094 -19.128906 17.34375 -14.804688 L 11.546875 -13.242188 C 6.242188 -11.769531 1.5625 -10.03125 1.5625 -5.394531 C 1.5625 -1.5625 4.503906 0.445312 7.804688 0.445312 C 12.21875 0.445312 15.960938 -3.878906 17.34375 -9.363281 L 17.34375 -1.335938 C 17.34375 -0.492188 17.789062 0 18.683594 0 Z M 4.90625 -6.644531 C 4.859375 -10.300781 8.425781 -11.769531 11.726562 -12.707031 L 17.34375 -14.222656 L 17.34375 -12.886719 C 17.300781 -8.203125 14.222656 -2.183594 9.453125 -2.183594 C 6.910156 -2.183594 4.90625 -3.746094 4.90625 -6.644531 Z M 4.90625 -6.644531 "/></g></g></g><g fill="#ffffff" fill-opacity="1"><g transform="translate(148.211989, 50.425256)"><g><path d="M 8.425781 0.445312 C 11.058594 0.445312 13.332031 -1.472656 15.25 -3.65625 L 14.847656 -4.058594 C 13.375 -2.320312 11.816406 -1.738281 10.566406 -1.738281 C 8.648438 -1.738281 7.402344 -2.898438 7.402344 -5.929688 L 7.402344 -21.667969 L 13.957031 -21.667969 L 14.179688 -22.292969 L 7.402344 -22.292969 L 7.402344 -27.777344 L 6.777344 -27.777344 L 1.070312 -22.292969 L 1.070312 -21.667969 L 3.921875 -21.667969 L 3.921875 -5.929688 C 3.921875 -1.292969 5.617188 0.445312 8.425781 0.445312 Z M 8.425781 0.445312 "/></g></g></g><g fill="#ffffff" fill-opacity="1"><g transform="translate(163.548548, 50.425256)"><g><path d="M 12.171875 0.445312 C 16.941406 0.445312 20.421875 -2.71875 22.695312 -5.839844 L 22.292969 -6.242188 C 20.242188 -3.921875 17.789062 -2.363281 14.355469 -2.363281 C 8.5625 -2.363281 4.769531 -6.554688 4.769531 -12.664062 C 4.769531 -13.375 4.816406 -14.046875 4.90625 -14.714844 L 22.339844 -14.714844 C 22.203125 -18.949219 18.949219 -22.605469 13.332031 -22.605469 C 7.089844 -22.605469 1.605469 -17.746094 1.605469 -10.476562 C 1.605469 -3.121094 7.269531 0.445312 12.171875 0.445312 Z M 5.039062 -15.292969 C 5.75 -19.039062 8.070312 -21.847656 11.859375 -21.804688 C 15.917969 -21.804688 18.324219 -18.28125 18.769531 -15.292969 Z M 5.039062 -15.292969 "/></g></g></g></svg>